<mxfile host="Electron" modified="2024-02-15T07:20:45.562Z" agent="Mozilla/5.0 (Windows NT 10.0; Win64; x64) AppleWebKit/537.36 (KHTML, like Gecko) draw.io/21.2.8 Chrome/112.0.5615.165 Electron/24.2.0 Safari/537.36" etag="3MY_q3l_BadctzyqM3va" version="21.2.8" type="device">
  <diagram name="Page-1" id="2XWkQP5S-hDbL94sL5Vg">
    <mxGraphModel dx="2058" dy="1180" grid="1" gridSize="10" guides="1" tooltips="1" connect="1" arrows="1" fold="1" page="1" pageScale="1" pageWidth="3300" pageHeight="4681" background="#999999" math="0" shadow="0">
      <root>
        <mxCell id="0" />
        <mxCell id="1" parent="0" />
        <mxCell id="APLwThIm-aDqV8bCMrbt-1" value="QML Layouts" style="rounded=0;whiteSpace=wrap;html=1;fontSize=25;fillColor=#dae8fc;strokeColor=#6c8ebf;" parent="1" vertex="1">
          <mxGeometry x="1490" y="290" width="500" height="60" as="geometry" />
        </mxCell>
        <mxCell id="bRiAD0KzV09kxX250uaU-5" value="" style="shape=image;verticalLabelPosition=bottom;labelBackgroundColor=default;verticalAlign=top;aspect=fixed;imageAspect=0;image=data:image/png,iVBORw0KGgoAAAANSUhEUgAAAZMAAAHyCAYAAAAutCOeAAAAAXNSR0IArs4c6QAAAARnQU1BAACxjwv8YQUAAAAJcEhZcwAADsMAAA7DAcdvqGQAACmjSURBVHhe7d0JnBxVoe/xf/esmewbe8gy2SAsIWyCPkAWFVCv93J9LvBRuIAXvYogD1kVZFEUvIAfQQUUBEVRUC4o8AAJu4okPHYMGbInZJtklsw+0++cWqZ7enqme+Z0Znq6ft/M6TpVXVNdXdNV/z61JbZgv/0TCiUSSvb4EmZYDxnG6an/Zz05jJJNHiaRR4XxhgprmQDZxYKus7xMKG9zs9PlNKeOI3nPxHo+7/cmh6WOkwyTtJDoP0SCmumkjTWEcnjl/IxSQPIwtwX0hkfWsi8uPTcRO1FeXmjI5tZZTnOav5HyznvV5IPH7+05P6mhEj7vh0laUPTOkXBA0DWdtFFS9P1Mt/yMkidZXqmg5rVQDNE7jt6CDdfPEWLkzGze5jTrhIZmmeT0KoOaFf+XvMfkgyfWT6BYsX0X7JeyyqYFSXprxP8JpPfnW5Yp5/DCO2/e0g3NzAzd+8mHkTW3yKTnxqOQZZ3TnN5K4bzftO12BjtvXnu3Orofgqpft3qMmwyTnkGS3hpJ9qYGjNWzL5dtSA6jZJc6s33Iy+vkTZa5KaCZLazlhmKW3Cw5yjqhvL2Ss5zmJA/vZ3Cvkxzg1YLgSA0NK9NzQZikBEmPsPCeCvp7hk3v/lDGgT3lZ5QcuL9QfuajkAzROyqulxkyydW1AORlZgrqHTnL+m5yervuyyR/L9N7JG9IEBRWd1j4nfChx3i2E9tn3wXJ9TEtSFIDprSsTKNHV6m8rFzlFeUqKSkZ9Jqc+ioFb8hm1f2FRtBSBTz+pigf8jelfg3Ry+RDsPkfOPNrnZ2dam1tVVtbu5qamtTR3m6G+9MLw6X7MRzeHSb9BMnYsWM1fsJ4bd3eqOaWNrW0dai9vSMYoZgNYPPsL8+kwWzZU6fR/QfoQ/rrWdleM/wd13kLZZzOIOZ7qA3m/Tvy3vYwvPdheKsoAmWlpaqsKNMo03CYMnG8tm+vU0N9vfkM+x/iTIHih0kfQWKPm0yZMsUMiWvD5u1qi0SApMqwKtollz7YX6Y9DWYtzjidPiY0mNcMfydv8xZ0e8gy8UzTGSqDed95FKyHQ26Y3zZGuPKyUu0+ZZJKS2LatGlzMDT8PPsfavsYzxwktpvQONMisUGyav2WCAZJH8KFZZdeWNINdu21v5f+u/ncAmWafq7Sf6/P6aQumDzOezEY7LJ3xF8DLuy2f9WGTero9PdS+SdnJbMifIx7NcuGSvCk7dpmjt21ZVsk0dXP6ucvQ5+tp5a+5LpWZ5uOle35nSF8zeF47SLg/Vm9B68XGFE2bKnVhPHjvWxIzYrwAx33O2ag1w0+7MboMaO9YyTRbpGES6UP9ukso3RLD5BsgZKL8PUHMh+uhup18q2A5tublZG6HBFZNgu2bK9T1egqrz/MijBQ/JZJ0NN9bYnp2rO27MF2DCM2OEVruP60+fgOg+hqbm3zsiFMknCXl/1JHjPxn/NGslV7+q89awvIq/BzhmET7mklWDBQLa3tqqioCDIjWJlNx9Zi8+bv4+348gd7Va87Y/oMvbl8rTe0L+PGjlZZafKwS67aOzpV39AU9I0UwYIbrPQ1N5fJhb8T/tFGpBzmfWdu1Qp40Q3X2V2pRvInC8NjQfV0rVy10tRi3Wd02a4Jk/kpe7f8iu3OmDFdby1f5/X35cbrv6vq2bODvszCm4Ote39L9zZxR/1WfePCSxSPl/gDRoxBrHr27Q92jQ03NsUeJlb4XvNlBCyyQggTayR/ujD09q3eWytXrkoJEv+DHO/+JKUESa4mjB+nBfPn9Fv2nTfbKycc/QF95Bi/TJ0yeUCvM2KFG4sC2WhkVCjzxhZt2NiPQF8lSq7+9uVavexNrat5J2Oxz9lxCs2Lf3lMRx5+WNDXm33uhScfDfryJdyLlcyM2Lx5pmXiD/HW5/CJXFomd//8Vu21V7UefO5dxeIJv5TY0qWTDpyt3XYdr8bGHd64o0eP1gMvrPDqM8c26bTTz1ZJSanXn+6NJS/ozHPO1d//sSQYUiiCpZercG0c4K/15jyBYTSAec/X1muELK5CaZlkM5I/fQNhw+KEk/9FGzZuCob0NGniBD37xKPae+6CYEhhsGHx45uu11fPu1Av/v2lYKivv+cGy2+ZhLu5/A+x7Q78gEcKO5lYrEQr6hq1sqFBq5rqtaa1Tmvbt6u9vcsEkynBv1BJeWdQK0zXXHmZHn7gXr/HlX3beVkTvSXtVwHsFPZ+gzZI6uvrM5aVq1b79yQsMDYkbFjY0EhtoeyMIOmPU5h0dvlbyqmTKxQr71BdR702t2zVxmb/kvtY2oa0cmKLqqaMtAPvQLTxNabwpQfKUAeJ5RQmYVa8vXGtVmzfoO0d29SsBrXFGr3hieBTaBpDXnf0hEZVjfGfG6gzTz9N6957s7vYFsThhx7s1W03ZFsV9jnr+ace6R7f7joL3Xnbj70SCvvt753xhc9r0UEHer9jXzP1dd9Y8qL/C8OG1RrDw37yMpXhxvwkpQbKUAeJlXYFfBAP9rhJmBT9CBdWswmPslHtKqtsV2lFm8pM8ZhphEFizZ86TbMnzAr6Bubnd/1Ke85a4JV/+8wX9KlPnOQdU1n6yqv6xMkfC8aSZs6YrsuvvNYLlW3btnf/zj+WvOKFS3/s7915973eNO3v2Nc8/2tf9l7P9u938AeDMYfTUH9Egb719WnMdAA7U8m3Qls7inJttdng5YPNiTAowivgHXkhYkpZhS0pYWKWZPhS1uyJ1V4ZrLCl8Yf77g6GSA8+/IiOOcrfyNuWhQ0Ny4bKNdf90KtbZ3zpq96wgVqxclWP1ysMRRoo3R9SjHR7Vs/PqbgqtI/McM5P6q6t1F1eQyUvYeIHiR8i5bZb7oeJf2ZYuGgTamtvV3NzS9A/MDZInn72he6WSci2Hiy7q8uGyk9vv9Prz8S2VAbqE6d83nvN5K6yIt2QF5JC2jogq0JYI1I/MlGcn/RjJOnHUIaCW5iYpdTa2qzDp1TrkIlztGjcXC0cvY8OGLXAG+6P4i9KmytdXV3qNGWwbCvBOufsM7xuyIbM5Rdf4NXD04ntuOEwyx4TCX9/3foNmjM7ubvt0IMPCmr+702cOCHoS7KBYqUenxlehbDK7EQEyohiP42ZynDJNC+29Mf+74L29N++7Lbrrt44g5FpXmzJh74Otg91oMTmzptvVttEsOsr6JqHGTNm6K2a9XZgBv6a/ovbbtFxx3xQTTsauxdMzLuq3U6nS6Wl5YrH4+owfwD7R7BhYr38yutZrzNJ3aA//uRiLwDswXHLHtOwu6xSj2HYloM93mGPe4RsaybctWVD4kPHnuTVrdTXsNPbsrXW2xVm2WlZ377qe94xk3A8Ox/hOOEyGF6FMA/ZOMzjYNe2kbBYjJFynYmrofxz5LJI+5ofe0HiF0/7XJ+n/9pt2C9/9Rt966prgiHZucxPLuz1Hc8/8YguvOyKPg+22yC54btX6cjjkseWXew7K7jOxLw5r7Fg5sF+lp3C5DyzoT1o4QFePRMbJLbYP0LqFe+vvfq6rr/xR4r3ESaDYcNhaA+QJ9/P8CmEecjGYR5zWRPTjYRFEiBMdp7+Fm2xzY8NlKG8o0iew8Sy45rSZYIiGJIru2BtCya8etJVeJpvstUwFIbuj9e3QpiHbBzmcSAfj5GwKNJEJUys4fjz9Ld4mZ/B6ytMshwz6f8tepfQm9aF3V01kGJ/J19BYndJ2WMeQxskg2Tfcn7eNjCihB/99DJcMs2LLcNluF8/H7KESeG/vcK5/gPDZgS2SnY2u0iGsgzWztzCDGa+hnt+RnKg5OXUYOTIdc2LmiJeXjtzF9dwLLLwT1VofzLmZ+gMMkyKdXGMNCP5e8wAFNnHbWcGSaEYyJ9sKBbHSJqfkfrx8MPEe2fJg+8DWfA92cUQgTUFQ2/wH8q88T7d5sG1oDe7WDKV4ZJpXmwZKkP9egMVREZytTSVnbSbq5AXA4ZWuFoU+uqRAz7WA5KP/M/nIh+J8zOSPnKDDBP7FtPf5kh62/lQKO83Qsvdrn352CIMQtQ+3fkyjH+yjJifnSdPLZNcVzVWSeTBEK993qd2BH10C3FWXf5kO+P9jKT5GSkfPccwsW8z17cajjdSFg0K2hAEivfpHshHvICEsz3QUqgyzastwyXTvNjiIluguE5/Z/OvgPcOuvc8AD9zxgw98eQT3kgAIszbMPQU+06hb9qwsxz//AlasXKlH27m25a9AN3Wd9IBeABAlBAmAABnhAkAwBlhAgBwRpgAAJyZMPHP3gof/PM27GPvMzgAANHmpUT3bbeSdVomAABnhAkAwBlhAgBwRpgAAJwRJgAAZ4QJAMAZYQIAcEaYAACcESYAAGeECQDAWdy/Jj71lire1fFhFQCAHsJ8SGZFgpYJAMAdYQIAcEaYAACcESYAAGeECQDAGWECAHBGmAAAnBEmAABnhAkAwBlhAgBwFreXwttL4u2Dd1m83+P9AADQgx8UQVbYqp8XtEwAAM4IEwCAM8IEAOCMMAEAOCNMAADOCBMAgDPCBADgjDABADgjTAAAzggTAIAzEybBJfEBr6/nIAAAkvw7qHSzdVomAABnhAkAwBlhAgBwRpgAAJwRJgAAZ4QJAMAZYQIAcEaYAACcESYAAGeECQDAWTwR3D/FvzTePqZeJA8AQE/deWECJKzTMgEAOCNMAADOCBMAgDPCBADgjDABADgjTAAAzggTAIAzwgQA4IwwAQA4I0wAAM78MAnuoOLdWsVeIR/8AwAglZ8NXlAkU8JUaJkAAJwRJgAAZ4QJAMAZYQIAcEaYoJdWU9aaUmNKrR0AoCe7Ymzyq/ARJuj2hiknmTLelGmmzDZliilzTfmdKd1nbgBR1WXKy6b81JTX7QCECBN47jHlMFMeNWWiKTZUbNnDlHdN+awpV5oCRJL9JrXSlDtM+ZMpbabYYEE3wgSeNaZMNuV+U+wurj8H5T1TvmWKXZd+aMrfTAEio8OUv5tyqyl3mbLBlLGmoBfCBB67S+sFU04xpcQOCJSbcqkpR5myw5Q/mAJEhm2BPG/KZlMmmPJpU2aagl68MPH2hXuXv4d1r4oI+d+m7O1Xe6k05QC/6rX0gUixK4YNka+Zsq8ppaZEnI2L7pgwPbZOywQ5GRN0RwVdIBKqTLFBssCU1CY7eiFMkJX91rHKr2pW0AWAVIQJslpmymOm2C9pJ9oBAJCGMEG/mkw5z5RtphxnysGmAEA6wgR9smdvfckU2yrZ3xR7ij27jQFkQpggI3vdyTGm/NqUQ0152JRdTAGATAgT9PKkKYeYssSUU015ypTppgBAXwgT9HC9KfY2Ks2m2N1a9jYr4WnBANAXwgTdbjTlElPs/bjs1fD/YUrMFADIhjCBx+7KskFi7xa82BR7wB0AcmXCxL8oPvnoXxofDEAE2HvZ2d1btnutKdx6CECfurPBVIJbqVi0TKCNptiD7faiRHvg3X44+isAkI4wgbaaYq8paTTFngZsb47aX7nFFABIRZhA9aaUmWJvN2//y97+Cv8nECLPriz2zsG2i26ECfQhU7aYYlsm2UqDKV8xBYisj5li/5Ofo70+BAgTeOwXrVwLt1RBpNnz5e2Wk/PmeyBMAADOCBMAgDPCBADgjDABADgjTAAAzuL+Jc3Bdc1c3gwAGLAELRMAgDvCBADgjDABADgjTAAAzggTAIAzwgQA4IwwAQA4I0wAAM4IEwCAM8IEAOAsnrybSiLsmOI92D4AAFKYbLAZ4f/4TIWWCQDAGWECAHBGmAAAnBEmAABnhAkAwBlhAgBwRpgAAJwRJgAAZ4QJAMAZYQIAcOaFiXdJfPDQfXk8AAB9SN5Kxc8NWiYAAGeECQDAGWECAHBGmAAAnBEmAABnhAkAwBlhAgBwRpgAAJwRJgAAZ4QJAMCZCRP/ovjgbireg/8PAICebDYkUyOZFLRMAADOCBMAgDPCBADgjDABADgjTAAAzggTAIAzwgQA4IwwAQA4I0wAAM4IEwCAs7h/RXzy4vjuq+OTV8kDAOALg8L++B2vn5YJAMAZYQIAcEaYAACcESYAAGeECQDAGWECAHBGmAAAnBEmAABnhAkAwBlhAgBwFvcvhbfCi+K7qwAAZNQjO8xPbFb17IS9wYr3zw7zHzRr1iw99dRfgpEBAJCOPfY4vbfiPVOLKRazxauxmwsA4I4wAQA4I0wAAM4IEwCAsywH4J8KRkP0mM9BumdeDiqIlKMPCSpJTU01QQ1R8/GPf4kD8ACAnYMwAQA4I0wAAM4IEwCAs2SYpBxv9asZDsACACLPnqfVLajTMgEAOCNMAADOCBMAgDPCBADgjDABADgjTAAAzggTAIAzwgQA4IwwAQA4M2Fibz4f8C5r5Mp3AEBfwoww3eBSePtIywQA4IwwAQA4I0wAAM4IEwCAM8IEAOCMMAEAOCNMAADOCBMAgDPCBADgjDABADgLwiT1lirdDwAA9NB9A5UgJsJ+WiYAAGeECQDAGWECAHBGmAAAnBEmAABnhAkAwBlhAgBwRpgAAJwRJgAAZ4QJAMBZPLwk3l4On1JN1gEASBUERGpO0DIBADgjTAAAzggTAIAzwgQA4IwwAQA4I0wAAM4IEwCAM8IEAOCMMAEAOCNMAADO4t7l8PYhw+XxAABk4meFeUz4NVomAABnhAkAwBlhAgBwRpgAAJwRJgAAZ4QJAMAZYQIAcEaYAACcESYAAGeECQDAmRcmyVuo2FoipR8AgJ56ZYQZQMsEAOCMMAEAOCNMAADOCBMAgDPCBADgjDDpQ6Jd2rpeerdGen+r1NYVPAEA6IUwSdOyUrr289K0idLUPaW5s6Xdp0jjdpPOfywYCcWr9S1dfe5JmvrJ4zUlY/mIpp/7Mz3fFIwPwEOYpFjzR+nIhdLlv5E2VUiHfUT67KeloxdJYxpMS6UtGBHFq2OHNm7dqi31daptbNC2XqVe25rblYgF4wPwECaBbc9K/3669Ir5xnn8ldKKDdLf/q/0m99JTy+R3t8oXXpQMDKKV/sObWtNKDbpWN1592I1PPqsGnuUZ7TxlnP0wVHB+AA8hIm1Q7rxG9JLpvVxwvelB6+Q9iwPnguUjpPmTwt6ULQSrQ3absIkXjlBu0+oUlVFhUall/JSVhwgjVknMt08xQyL0D1V1jwg/dS0Psb9L+mGL0ujg+GIns6WOtW1SyUVYzW2NBgIII0NiGRI2BpfsLqkx38rbTbVY8+W9q/0ByOaOpob1NgplVWN0zjCBMhZ5MMksUF6+GVTmSR98iiJ46rR1tZU74VJuQmT0XzVAnIW+dWlcbn0zjapcm9pv6nS1lela8+UjjrUtFIOlI77nPSzxVJzhHb7RVnrjgY1mb91vGOVHn7oPt38h/v1iyef03OratXEtUZAnyIfJrXvSps6zDfR0dLbP5YONCFy+S+k55dKb74mPfVb6ZxjpYNOl5a1BL+EIpVQc2OjWk2YbH3lVzr3pht03o++rzOv+YaO+uKJmvqZ/9TXn1xhz9cAkCbyYdK0XbKXj5Sbhxu+I5V9RHrYhMiWOmmjabXcc540uUT6593Sad+VGvxfQ1FKqGTqB3TeWV/Xzeddqtv/z0W6/vRTddYxB6m6ynxWNi/Vj649Syfe84bqg98A4IvNnDUrkbC7cMyD9892TameVa3Fixf7YxWxJVdIH7xKajX16Z83LRITGnuZ8Ej14mXSCSZImneXfv0P6XN7Bk8UtQz79Z6xB5eiqaP+Hf38xov1tcXr1F51gK69+VZdOqcieLbIHX1IUElqaqoJaoiakz9+tmpqahSLxfxijzSbbuRbJqVlwUH3cdIFJljSg8Q64qvSx02QJN6XHl0SDESklI6bry+df6nOmVFutqTv6HfPvCvuqAIkRT5MRpkQMXmi0j2khaZkEpsozdvVVMyX9XVrpU5/MCImNm5ffeKAqSpRm9atWKNtGRpvQFRFPkx22Ueaaloj9i7BrX2lhEmbySZ0PGxAIqxSe+w+2TxK7a1N3oF6AL7Ih8m4OdL8Caa1sUV615SMdpjn1ptuTNpjL5lvpoimRi1/b4OazAdh3ORdND7yaw+Q1L06eF+yIvhNK763dMrhplIn/eQnXqeXzc9Kj600WbKLdGLvY5GIiLY1i3X7y1uViE3UoYfOt9e5AtET5oTtmhL28t3KLIFTLvRvo/L6T6Xz71GPA6s73pEuvkiq6ZAOPEP6RCTO5IqottW6/4H/0XObW9O+VyW0Y81fdMn3fqxHtnVp9JxP6YIjp/onbgDwdJ8aHDyY1SZapwaHXrhCOvlq0zIxW4jd95OO+aDJmeXS03+V1jVKuxwvPfqgtCgyd4HsuTn1FPupwe3LdO3XztS3aso1Y8ZcHVg9Q3uWbNe77/1TS5av1db2hMp3/bBu/v7VOmdGRE4Ltjg1GClOPvls1bxXY75M+acG29OCbZeWSeCDV5rguE06ZLL0/mvSb34i/foJUzfPnXiZ9NeHohQkERWr0t6zZmr3eKNWvPuyHnzsft3y5yf1+NtrVVe6m47518v0/G3XRStIgBzRMknXKa03LZJVG03LZJI0d640Me3/NomGCLZMAl2tdVq/tVabt29XXUepJkzaQ7N3n6QxJRHdsUXLBClomeSqRNpjnnTEUdLh+0U1SKItXjFee+0xUwfte5COOWB/LdxrcnSDBMgRYQIAcEaYAACcESYAAGeECQDAGWECAHAWTz0D1KvahwxnhQIA4AkyIjUqaJkAAJwRJgAAZ4QJAMAZYQIAcEaYAACcESYAAGeECQDAGWECAHBGmAAAnBEmAABnQZgk76HCnVQAANn0zIoELRMAgDvCBADgjDABADgjTAAAzggTAIAzwgQA4IwwAQA4I0wAAM4IEwCAs7h3FWP3pYxc/w4A6E9qTti6KeaHlgkAwBlhAgBwRpgAAJwRJgAAZ4QJAMAZYQIAcEaYAACcESYAAGeECQDAGWECAHDWT5hwaxUAQF96ZgQtEwCAM8IEAOCMMAEAOCNMAADOCBMAgDPCBADgjDABADgjTAAAzggTAIAzwgQA4MwLE++iePsQVLqrAACk8PMhJSFM1fbRMgEAOCNMAADOCBMAgDPCBADgjDABADgjTAAAzggTAIAzwgQABiShTX/6to6YdYimVX9G3325ORgebYQJAAxE0xu64wd/1Gsbt6t2a4NaErHgiWgjTAAgZ51a9eCtumMprZF03WHS8/YpPfsAAGbLuPUF3XTDs9pefYg+sGdJMDSibEwEt1KxaJkAQE62a/H3vqu73x2v40/7qGZWBoPhic2YOSthyBbzYFLGr1dXV+vpxYuD0QAgqampJqhFx7bFV+n4U+7R5qOu1JO3Tdctx52pO9ZU64In/qCrDo1Ospx08lmqqalRzP6LxUyK+F1aJgCQRaL2BV130e/1z8pDdN6V/6a5o+JsPNOwPACgP50b9OBF39Jtb5XrQxdfoS8vHBU8gVSECQD0qU3L7vq2vvHbNRr74XP131+aL6IkM8IEAPrQ+PId+uq3nlbt7h/V924+Vfty0L1P/R6AX/EpDsBH1aqvB5UUty89OKghSs5etCSoJUXhAHznusd17snn667Ve+rMX9+rm06ckvz23fCizj/yDN3GAXgOwANAnxpf041nXqpfLq/Uhy65XtemBgkyYvkAQKrEFj1y8QW69rntGrfwBB0/4Z964K7f6a6UcudvXtQKexF8okkrFj9khv1ev128SlG+Lp7dXMiI3VwIRW43V/sy/fAjp+jbLw0kGuKadtpP9eLPjtWkYEix6ms3V3eYeEESFvML1dWzCJMII0wQilyYdKzXIzfdqWe3BP0ZJNo26cX7H9XSusk68tMnadGUuCrmfVzfPONAjQnGKVbdYWIDxPwjTNAvwgShqB6A71fDCzrvyP/Q7Wuq9Y3HH9DVh0XnhOG+woRjJgDgwG5IwQF4AEAeECYAMFCJUlWNHa3K0VUaxVbUw2IAgIEad5iuefYlvb/qPl20iMviLcIEAAYspnhpqcpKSxTnkImHMAEAOCNMAADOCBMAgDPCBADgzISJvd49fAz17AMAoD+0TAAAzggTAIAzwgQA4IwwAQA4I0wAAM4IEwCAM8IEAOCMMAEAOCNMAADOCBMAgLM4d04BAAyIzY207KBlAgBwRpgAAJwRJgAAZ4QJAMAZYQIAcEaYAACcESYAAGeECQDAGWECAHBGmAAAnAVh4l8X3311PLdYAQBkkRoVtEwAAM4IEwCAM8IEAOCMMAEAOCNMAADOCBMAgDPCBADgjDABADgjTAAAzlLChMveAQADZbMjQcsEAOCOMAEAOCNMAADOCBMAgDPCBADgjDABADgjTAAAzggTAIAzwgQA4IwwAQA4I0wAAM4IEwCAM8IEAOCMMAEAOCNMAADOCBMAgDPCBADgjDABADgjTNJ1NaurfpU6tq5WZ0tbMBCR1NWlps2t2ri6Vdvru/iPrYF+ECahljfV9NBHtf6yCVr77Rlaf/V0rbtkotbdeJYa19YFIyESOjpUc99KXXPCqzr/Y2/qW//6pr553Gu68Aur9NzbHeoKRgOQRJhYtb9T7Y2Ha8tTj6ujc5LKZnxUo+YuUmlFuzpX/Vy1PzpG25ZtCUZGUWtv1fMXva3rf1Cr1Q1xTV4wTos+PE4zdoup8c2tuueL7+j2P7cRKEAawqTzbTXc9xU1bmxSfOZFmnrJSu1+3mOa+pUl2uM7SzXp4DmKtf0/Nf7+crXsCH4HRapLa+9brQeeaVdiwlh96rYFuubu2Trnhtm69MEFuuBLY1TV2aalN63WsyvY6YUIiwVdj98T+TDpWnajGt7dKo0+QeM/e5VGTawInjEq9tOYT9+hsXuOUmLzb1X/yrvBEyhKLc16+ZEd2pEo0ezT99IJC0uTK0hJqeacMU0fOzCuRG2j/ra4RR3BUwAiHyb1anv7GXV0xVQy92xV7VoeDE9R+SGNOfo4s6Dq1Pbak2bcYDiKT0uHarebP3C8VHvMK1dZMLhbeblmzCszn4Uu1a1vF6dnAEnRDpNEvTpra02lQiW7zupjYcRVMrlaJebJrk0vqb0lGIziU1mqSeNNk72rS402VHoxw2vtWV1xjd2tTBm+egCRFfGWSacSnXajYbqtTf6gDGJjZypuv6Y2LVN7PTs3ilblKC388CgTEu1658FtWpfW9Ghfvk3PvtSuRFWVFh1dodJgOICoh0lsnErHjzOVdnVuWamuPo6pdm1eqg67YelqUqKdMClecc04dZpOWlSqpr+v048v3KBXl7WpobZNq5/eoJ+cu07vNJZqn//cSx+eE/HvYUCaiK8RE1W2zxEqsXs23r5O9eabZy/2TK7FD6nTBk1Xq7oIk+I2erROvHmuTv9UpRqf36BbPveGLjjhDV1zwQa90VCpo66eq/86rUopp2kAMCL/9apkn/M1ZvpYqeNNNdz5UdW+9LI6W1qV6GxU54b7tf32T6p+21yVjy8xS6tS8fJeh2VRTNpatfQnq/XAn5vVGo+patdK7T2/UhPGxBRrataLN63W/zzdxplcQBra6uWHatypt2r0LqOkpn+o8d5Dte6SMVr7zQla9/1Pq35FhUYd+UmV2MvU4lWKlbHIilZXu179YY1+cW+jWqdN0ql37a//fmRfXf7rffWDxfvr0ksmaUpDo564vEZ/+GsHt1cBUrBlNGJTT9PkC5Zqysc+p4qpu5nWR6VilXuqfMF5mvRfz2jSwl2UaDebjlHTVTqalkmxanl1kx58qEXtY8bo5Kv31tELUq4ziZdq+r/vrbPOGqPK5mY9e8tmrWwOngNAmHSrmK+qj92rXS/boL2uq9de167SbmffqDEz91Ci9nV1tJjQmXigykwDBsWoUzV/2qb1bdLohZN12LxMq0Zc006arLnjpbZltfr7W53BcABpawwNd08s9V4BLeqo+as6u8pVOvMIlZQEg1FcOju0cU2nWQNimlBdqTE9bheRFBtfqT13MU/a8Vfb8YEIyvDBp2WSTcs/1PT6W0qUzNGo/ReywIqV+QJR6u3BTKh+TZv63IPV0KoNm+2aZMYv7yNxgAhi29ivRrU9f7ka1zUrPver/llfKE72mMiBFd4tVBpf36a3N2RqcyS0+cVtes/+jwSjKjRrTmnP+90BEUaYJOrUsaHG3kGjp65Nal18qrY8+qy6Ko/Q2BNPUym7uIpYXNNOnKJ5E8xHYnOd/njdJv1zS2qgJFT7wgb98sf1qjeDxx0+RYfNJkqAUGzGjJmJhFlREvbRFLsvzHarZ1drxacWB6MVscQq7fj5Edq2ZheV732AyqbsokTjO2pb9pTa6pql8gUac9pjmnTAXsEvRMOqrweVFLcvPTioFauEtj6xWjdfsVXvt5qVo7JUu1RXaY+p0raaJq1b2yF7Ul/ZzCk6+9ZpWmiPnUTA2YuWBLWkpqaaoIaoOenks1SzvEYxe2zZFNu1VVomdkdF+Rip8TW1vH6PGhb/UI3/+LPaGqtUts+FmnLhS5ELkuiKafIJ03XxndN13KHlKm/r0MY36/XK0/VauaZDnVUV2vfUGbrkl3tHJkiAXNEy8Zg33bpRHbVr1dm4Q7Ex01QyyZSK6F5TEs2WSU+dO9q1ZX27dpgGasXEMk3Zo0wVEdzVScsEqWiZ9MssiYrdVLr7IaqYc7TKd58V6SCBr2R0mXadU6VZB1Rpz2nRDBIgV4QJAMAZYQIAcEaYAACcpYVJcIYKJ6oAAHKS8B5pmQAAnBEmAABnhAkAwBlhAgBwRpgAAJwRJgAAZ4QJAMAZYQIAcEaYAACcESYAAGeECQBgYDLccoswAQA4I0wAAM4IEwCAM8IEAOCMMAEAOCNMAADOCBMAgDPCBADgjDABADgjTAAAzggTAMCg+HdV8R8JEwCAM8IEAOCMMAEAOCNMAADOCBMAgDPCBADgjDABADgjTAAAzggTAIAzwgQA4CzuXwnvXw4PAMDAxWiZAADcESYAAGeECQDAGWECAHBGmAAAnBEmAABnhAkAwBlhAgBwRpgAAJwRJgAAZylhEuPOKgCAAQkjg5YJAMAZYQIAcEaYAACcESYAAGcmTDIdcQ8OxgMAkIkNiZSgMGGS8CreMBIEANAPP0N6h0XPlomfK96Qjs5OlTZv9gcAACJvy5Zt6ujoDPp6Sh4z8eMmfFBrS6vK69716gAALK9ZrZbWlqAvaIiYjq15YRIM8oT11rZWVWxbFvQBAKKuZvlKtbW2eXU/K4LEMB2/ZdKdJsknGhsaNX7ZvSprXOsPAwBE1rp1G3XffY+qsbExJTMsvyce87r2IXg26LS3t6t28/ua9Pot/gAAQGTddvt92rhxo5cNHpMVQVwYsZRjJkZ6sGyv267YisXa9cVLaKEAQATZFskVV/xIzzzzN9XV13nD/LO5TPF/PLGZs2YlEvYsLvPg/UuvG+PHj9Okqbupfu6pap0wR20T5qpj1FT/SRSlVV8PKiluX3pwUEOUnL1oSVBLamqqCWooRvasreXLV6mmZpV+e98jXoukvq7ef9ILEPtgHr3iDzRhUu2lRhgeQbL4QZIyvKysVGPHjFV5RbkqKypVUhI3z3ijpuk1oJfsYxg5jZSN+0TyMhtW1gnl7ZWcFciiNwpnmeRH+B2uAORhVgro3RhZ5iZPM5ufybhPxd+A50PahEyvHWJP/21tbVFrW5t3jKS9vcN7zWSIpNaDfi9MzErbMzy8QV7X/vN/Uob7D93dVN6wbHIaJctIOUwjF/l5newj5WV28zCRnP4+Q6WAZmVEMSvuSOFtcFzlMInso+RpoWWZTF7er2E30M5ymESv+TW93rAwIPwBXtebp+5hqc8H9VkmTOwGxuZEMkzsVG3XVLyfnvVe3RTeePmQZTLpr5tRHmaloF4nmzxMIhd5mVcMK28jUAhymI3c5jTLWHl6u3lZbjm9Z/f3k9O8po3i/Y73k9o1j6nDbH843P6O96Spz6o2YWK3DebB20jYn171tOftP3+g95MqGLt/OY2SZaR8TMPKYZRscnqdbPIwiVwmMkQvU3Ty8Tf2V70RJA+zm30SObzIEC22vPx9cno77u85H9Owek3H6zVDTdd7rrubOsyve3227lVNd1b1bLOe2FXF65i1pnfd/0l201spqbxh+ZBlMjm9Th5mpaBeJ5s8TMLX/4Ty9jKFYqjekLfWFYb8zEoeppKnZRJs0tzkMImCeZ2dNa9BOPTapeU95/dn3t0V0/8HVUNPricU3R8AAAAASUVORK5CYII=;" vertex="1" parent="1">
          <mxGeometry x="1550" y="360" width="403" height="498" as="geometry" />
        </mxCell>
      </root>
    </mxGraphModel>
  </diagram>
</mxfile>
